<?xml version="1.0" standalone="no"?>
<!DOCTYPE svg PUBLIC "-//W3C//DTD SVG 20010904//EN"
 "http://www.w3.org/TR/2001/REC-SVG-20010904/DTD/svg10.dtd">
<svg version="1.0" xmlns="http://www.w3.org/2000/svg"
 width="459.000000pt" height="327.000000pt" viewBox="0 0 459.000000 327.000000"
 preserveAspectRatio="xMidYMid meet">

<g transform="translate(0.000000,327.000000) scale(0.100000,-0.100000)"
fill="#000000" stroke="none">
<path d="M1576 2954 c-381 -69 -731 -327 -908 -670 -106 -205 -148 -375 -148
-604 0 -229 42 -399 148 -604 178 -346 529 -603 916 -671 103 -18 320 -20 433
-4 92 13 283 74 373 119 196 99 383 265 501 445 38 58 39 60 17 63 -14 3 -28
-3 -36 -15 -120 -170 -219 -271 -347 -359 -206 -140 -410 -210 -652 -221 -366
-18 -709 118 -959 378 -150 157 -258 346 -310 544 -118 447 12 909 347 1230
381 365 955 449 1432 209 158 -80 341 -239 444 -385 43 -63 60 -79 80 -79 l25
0 -23 38 c-88 145 -228 288 -394 399 -125 84 -318 161 -475 189 -98 17 -362
16 -464 -2z"/>
<path d="M3421 2181 c-64 -23 -99 -47 -128 -91 -68 -99 -54 -240 32 -319 48
-44 96 -71 230 -126 49 -20 107 -49 129 -63 103 -70 116 -226 25 -295 -87 -66
-270 -63 -440 7 -12 5 -20 -3 -32 -34 l-16 -40 37 -16 c86 -36 154 -46 282
-42 111 4 131 7 182 32 204 98 199 375 -9 479 -26 14 -93 44 -148 67 -169 72
-215 117 -215 210 0 58 26 107 73 138 72 48 270 40 353 -14 22 -15 24 -14 38
15 25 48 20 58 -41 82 -83 32 -274 38 -352 10z"/>
<path d="M1310 1680 l0 -500 285 0 285 0 0 40 0 40 -240 0 -240 0 0 460 0 460
-45 0 -45 0 0 -500z"/>
<path d="M2086 2158 c-3 -13 -7 -52 -10 -88 -3 -36 -10 -119 -16 -185 -14
-164 -40 -588 -40 -652 l0 -53 44 0 44 0 6 93 c3 50 10 189 16 307 11 217 27
421 36 429 5 5 194 -385 275 -566 l54 -122 43 -1 c40 0 44 2 59 38 19 45 228
491 274 585 18 37 36 67 40 67 12 0 48 -554 49 -742 l0 -88 50 0 50 0 0 48 c0
115 -53 861 -66 925 -5 24 -10 27 -45 27 -34 0 -42 -5 -59 -32 -37 -60 -187
-360 -265 -533 -43 -93 -79 -172 -81 -174 -2 -2 -16 23 -30 55 -92 203 -221
471 -275 569 l-62 115 -43 0 c-37 0 -44 -3 -48 -22z"/>
</g>
</svg>
